#!OML:ASF H:\ManfredETheater\Project 1\Capture day 1\Session 1\subject.ASF
:FULLY-SPECIFIED
:DEGREES
124
root -2.18404 18.9351 -14.1068 -181.293 -45.4151 169.447
lowerback 7.25556 -4.29444 -10.6066
upperback -0.987449 -6.75982 -0.826908
thorax -3.99926 -3.13244 5.6967
lowerneck -12.7168 -2.5465 -6.09836
upperneck 14.9123 -2.56047 0.809889
head 6.73996 -1.57413 1.00614
rclavicle 5.31252e-014 -4.37326e-015
rhumerus -52.2068 19.0018 -6.4563
rradius 45.7542
rwrist -14.0491
rhand -27.6769 0.940549
rfingers 7.12502
rthumb -1.07381 -29.0365
lclavicle 5.31252e-014 -4.37326e-015
lhumerus -41.5537 -24.7596 12.9038
lradius 114.927
lwrist 13.9112
lhand -19.2662 -13.6439
lfingers 7.12502
lthumb 7.04816 16.2187
rfemur -29.1832 -2.41909 -1.05586
rtibia 22.8838
rfoot 26.8997 -24.9337
rtoes 4.1094
lfemur 11.9099 -9.05266 -2.86324
ltibia 96.0222
lfoot 7.96155 -11.6697
ltoes 1.79068
125
root -2.34306 18.6502 -14.5425 -181.652 -45.3213 169.559
lowerback 7.33121 -3.96519 -10.4472
upperback -0.864764 -6.30781 -0.809357
thorax -4.00256 -2.91616 5.59971
lowerneck -12.8021 -2.70245 -6.30394
upperneck 14.8884 -2.72064 0.793434
head 6.75629 -1.66219 1.01759
rclavicle -6.56486e-014 1.15295e-014
rhumerus -51.7293 19.1364 -6.23481
rradius 46.3884
rwrist -13.6595
rhand -27.7893 1.32262
rfingers 7.12502
rthumb -1.18242 -28.6538
lclavicle -6.56486e-014 1.15295e-014
lhumerus -42.9629 -24.7048 13.6102
lradius 114.648
lwrist 12.386
lhand -19.1214 -13.8395
lfingers 7.12502
lthumb 7.18793 16.0184
rfemur -28.5027 -2.2577 -0.585381
rtibia 24.3462
rfoot 28.2894 -23.303
rtoes 3.2434
lfemur 10.2986 -8.35906 -2.35088
ltibia 98.0995
lfoot 5.56704 -11.5939
ltoes 1.00831
126
root -2.49663 18.3616 -14.9737 -182.102 -45.2487 169.839
lowerback 7.50876 -3.63082 -10.193
upperback -0.749303 -5.84946 -0.742123
thorax -4.07347 -2.6934 5.50934
lowerneck -12.9243 -2.86465 -6.49596
upperneck 14.8518 -2.89028 0.79562
head 6.7756 -1.75136 1.03138
rclavicle -8.55271e-014 3.29983e-014
rhumerus -51.2422 19.1253 -6.15559
rradius 46.8439
rwrist -13.1499
rhand -27.9142 1.70476
rfingers 7.12502
rthumb -1.30308 -28.271
lclavicle -8.55271e-014 3.29983e-014
lhumerus -44.5338 -24.4906 14.6906
lradius 114.429
lwrist 10.867
lhand -19.011 -14.0154
lfingers 7.12502
lthumb 7.29453 15.8388
rfemur -27.9286 -1.78208 -0.0787739
rtibia 26.0478
rfoot 28.9748 -21.1488
rtoes 0.382072
lfemur 8.41319 -7.50823 -1.62881
ltibia 100.277
lfoot 3.20294 -11.4853
ltoes 0.299587
127
root -2.64408 18.0746 -15.3985 -182.67 -45.2033 170.331
lowerback 7.81048 -3.29377 -9.81702
upperback -0.649067 -5.38677 -0.619503
thorax -4.23354 -2.4645 5.41652
lowerneck -13.0303 -3.03954 -6.66826
upperneck 14.7435 -3.08245 0.815206
head 6.76998 -1.84641 1.04572
rclavicle -7.94642e-014 -1.31198e-014
rhumerus -50.7186 18.9144 -6.23315
rradius 47.0663
rwrist -12.5315
rhand -28.0505 2.04707
rfingers 7.12502
rthumb -1.43469 -27.9279
lclavicle -7.94642e-014 -1.31198e-014
lhumerus -46.2786 -24.1345 16.1595
lradius 114.31
lwrist 9.4696
lhand -18.9194 -14.1714
lfingers 7.12502
lthumb 7.38295 15.6798
rfemur -27.4663 -1.17744 0.61522
rtibia 28.1123
rfoot 28.3473 -18.2224
rtoes -4.21466
lfemur 6.23601 -6.48672 -0.695454
ltibia 102.526
lfoot 0.915755 -11.3529
ltoes -0.360632
128
root -2.78337 17.7904 -15.8139 -183.393 -45.1737 171.115
lowerback 8.2542 -2.95317 -9.26955
upperback -0.576243 -4.91187 -0.423606
thorax -4.50788 -2.22537 5.31039
lowerneck -13.091 -3.22678 -6.8054
upperneck 14.5286 -3.29995 0.839734
head 6.72279 -1.9483 1.05452
rclavicle 1.22153e-013 3.65764e-014
rhumerus -50.1416 18.4495 -6.48131
rradius 47.0132
rwrist -11.8372
rhand -28.1944 2.30809
rfingers 7.12502
rthumb -1.57365 -27.6659
lclavicle 1.22153e-013 3.65764e-014
lhumerus -48.1956 -23.6322 18.0517
lradius 114.292
lwrist 8.28232
lhand -18.8529 -14.3194
lfingers 7.12502
lthumb 7.44713 15.5295
rfemur -27.1537 -0.666123 1.65764
rtibia 30.6303
rfoot 25.9614 -14.4584
rtoes -10.6413
lfemur 3.68683 -5.23337 0.514123
ltibia 104.852
lfoot -1.28226 -11.2407
ltoes -1.04776
129
root -2.91459 17.5145 -16.2131 -184.431 -45.1111 172.414
lowerback 8.89565 -2.61084 -8.34287
upperback -0.545315 -4.40305 -0.125916
thorax -4.95651 -1.96816 5.10314
lowerneck -13.0826 -3.4249 -6.8805
upperneck 14.2125 -3.54612 0.850132
head 6.63109 -2.05957 1.04759
rclavicle -2.38542e-015 -2.38542e-015
rhumerus -49.5133 17.69 -6.93097
rradius 46.6855
rwrist -11.1324
rhand -28.3421 2.45693
rfingers 7.12502
rthumb -1.71632 -27.5159
lclavicle -2.38542e-015 -2.38542e-015
lhumerus -50.2949 -22.9836 20.408
lradius 114.381
lwrist 7.34863
lhand -18.8226 -14.4511
lfingers 7.12502
lthumb 7.47635 15.3968
rfemur -27.0883 -0.249806 3.22445
rtibia 33.6428
rfoot 21.9539 -10.7562
rtoes -17.4133
lfemur 0.780945 -3.70073 2.11056
ltibia 107.217
lfoot -3.37755 -11.1586
ltoes -1.70235
130
root -3.03894 17.2472 -16.5874 -185.982 -44.8987 174.474
lowerback 9.78594 -2.26446 -6.7964
upperback -0.546079 -3.81459 0.316289
thorax -5.60803 -1.6813 4.69402
lowerneck -13.0155 -3.62825 -6.88913
upperneck 13.7977 -3.81216 0.83722
head 6.49685 -2.17699 1.02249
rclavicle 7.65321e-015 2.42517e-014
rhumerus -48.7837 16.5441 -7.58307
rradius 46.0573
rwrist -10.452
rhand -28.4851 2.45826
rfingers 7.12502
rthumb -1.85444 -27.5134
lclavicle 7.65321e-015 2.42517e-014
lhumerus -52.5908 -22.1282 23.2906
lradius 114.55
lwrist 6.64913
lhand -18.8468 -14.5676
lfingers 7.12502
lthumb 7.45301 15.2811
rfemur -27.2715 -0.0478744 5.53923
rtibia 37.1021
rfoot 16.4775 -8.03345
rtoes -22.5931
lfemur -2.40661 -1.81592 4.22275
ltibia 109.584
lfoot -5.41952 -11.1406
ltoes -2.24768
131
root -3.15596 16.9843 -16.9308 -188.031 -44.4826 177.285
lowerback 10.9288 -1.94712 -4.62871
upperback -0.553726 -3.15841 0.917937
thorax -6.42049 -1.38567 4.086
lowerneck -12.9521 -3.81624 -6.78841
upperneck 13.2904 -4.06698 0.762179
head 6.32968 -2.2867 0.962523
rclavicle 3.05631e-014 1.59028e-015
rhumerus -47.8262 14.8722 -8.43163
rradius 45.0861
rwrist -9.76916
rhand -28.6125 2.34458
rfingers 7.12502
rthumb -1.97745 -27.626
lclavicle 3.05631e-014 1.59028e-015
lhumerus -55.0923 -20.9217 26.7343
lradius 114.723
lwrist 6.10558
lhand -18.9281 -14.6972
lfingers 7.12502
lthumb 7.37452 15.1543
rfemur -27.6248 -0.00844839 8.55621
rtibia 40.7208
rfoot 10.2957 -6.88046
rtoes -25.1075
lfemur -5.91634 0.435583 6.78738
ltibia 111.908
lfoot -7.40711 -11.2283
ltoes -2.80446
